<mxfile host="app.diagrams.net" agent="Mozilla/5.0 (Windows NT 10.0; Win64; x64) AppleWebKit/537.36 (KHTML, like Gecko) Chrome/130.0.0.0 Safari/537.36" version="24.8.2">
  <diagram name="P치gina-1" id="bj0DzRCgQcsLs7RcYcNw">
    <mxGraphModel dx="1674" dy="788" grid="1" gridSize="10" guides="1" tooltips="1" connect="1" arrows="1" fold="1" page="1" pageScale="1" pageWidth="827" pageHeight="1169" math="0" shadow="0">
      <root>
        <mxCell id="0" />
        <mxCell id="1" parent="0" />
        <mxCell id="N8pNkHzPz6R8euL4msvj-1" value="Usuarios" style="swimlane;fontStyle=0;childLayout=stackLayout;horizontal=1;startSize=30;horizontalStack=0;resizeParent=1;resizeParentMax=0;resizeLast=0;collapsible=1;marginBottom=0;whiteSpace=wrap;html=1;" parent="1" vertex="1">
          <mxGeometry x="200" width="140" height="180" as="geometry" />
        </mxCell>
        <mxCell id="N8pNkHzPz6R8euL4msvj-2" value="Id" style="text;strokeColor=none;fillColor=none;align=left;verticalAlign=middle;spacingLeft=4;spacingRight=4;overflow=hidden;points=[[0,0.5],[1,0.5]];portConstraint=eastwest;rotatable=0;whiteSpace=wrap;html=1;" parent="N8pNkHzPz6R8euL4msvj-1" vertex="1">
          <mxGeometry y="30" width="140" height="30" as="geometry" />
        </mxCell>
        <mxCell id="N8pNkHzPz6R8euL4msvj-3" value="Email" style="text;strokeColor=none;fillColor=none;align=left;verticalAlign=middle;spacingLeft=4;spacingRight=4;overflow=hidden;points=[[0,0.5],[1,0.5]];portConstraint=eastwest;rotatable=0;whiteSpace=wrap;html=1;" parent="N8pNkHzPz6R8euL4msvj-1" vertex="1">
          <mxGeometry y="60" width="140" height="30" as="geometry" />
        </mxCell>
        <mxCell id="N8pNkHzPz6R8euL4msvj-5" value="Nombre" style="text;strokeColor=none;fillColor=none;align=left;verticalAlign=middle;spacingLeft=4;spacingRight=4;overflow=hidden;points=[[0,0.5],[1,0.5]];portConstraint=eastwest;rotatable=0;whiteSpace=wrap;html=1;" parent="N8pNkHzPz6R8euL4msvj-1" vertex="1">
          <mxGeometry y="90" width="140" height="30" as="geometry" />
        </mxCell>
        <mxCell id="N8pNkHzPz6R8euL4msvj-6" value="Img" style="text;strokeColor=none;fillColor=none;align=left;verticalAlign=middle;spacingLeft=4;spacingRight=4;overflow=hidden;points=[[0,0.5],[1,0.5]];portConstraint=eastwest;rotatable=0;whiteSpace=wrap;html=1;" parent="N8pNkHzPz6R8euL4msvj-1" vertex="1">
          <mxGeometry y="120" width="140" height="30" as="geometry" />
        </mxCell>
        <mxCell id="N8pNkHzPz6R8euL4msvj-4" value="Regi칩n" style="text;strokeColor=none;fillColor=none;align=left;verticalAlign=middle;spacingLeft=4;spacingRight=4;overflow=hidden;points=[[0,0.5],[1,0.5]];portConstraint=eastwest;rotatable=0;whiteSpace=wrap;html=1;" parent="N8pNkHzPz6R8euL4msvj-1" vertex="1">
          <mxGeometry y="150" width="140" height="30" as="geometry" />
        </mxCell>
        <mxCell id="N8pNkHzPz6R8euL4msvj-7" value="Valoraciones" style="swimlane;fontStyle=0;childLayout=stackLayout;horizontal=1;startSize=30;horizontalStack=0;resizeParent=1;resizeParentMax=0;resizeLast=0;collapsible=1;marginBottom=0;whiteSpace=wrap;html=1;" parent="1" vertex="1">
          <mxGeometry x="20" width="140" height="150" as="geometry" />
        </mxCell>
        <mxCell id="N8pNkHzPz6R8euL4msvj-8" value="Id" style="text;strokeColor=none;fillColor=none;align=left;verticalAlign=middle;spacingLeft=4;spacingRight=4;overflow=hidden;points=[[0,0.5],[1,0.5]];portConstraint=eastwest;rotatable=0;whiteSpace=wrap;html=1;" parent="N8pNkHzPz6R8euL4msvj-7" vertex="1">
          <mxGeometry y="30" width="140" height="30" as="geometry" />
        </mxCell>
        <mxCell id="N8pNkHzPz6R8euL4msvj-9" value="Valoraci칩n" style="text;strokeColor=none;fillColor=none;align=left;verticalAlign=middle;spacingLeft=4;spacingRight=4;overflow=hidden;points=[[0,0.5],[1,0.5]];portConstraint=eastwest;rotatable=0;whiteSpace=wrap;html=1;" parent="N8pNkHzPz6R8euL4msvj-7" vertex="1">
          <mxGeometry y="60" width="140" height="30" as="geometry" />
        </mxCell>
        <mxCell id="N8pNkHzPz6R8euL4msvj-11" value="Id_Usuario" style="text;strokeColor=none;fillColor=none;align=left;verticalAlign=middle;spacingLeft=4;spacingRight=4;overflow=hidden;points=[[0,0.5],[1,0.5]];portConstraint=eastwest;rotatable=0;whiteSpace=wrap;html=1;" parent="N8pNkHzPz6R8euL4msvj-7" vertex="1">
          <mxGeometry y="90" width="140" height="30" as="geometry" />
        </mxCell>
        <mxCell id="N8pNkHzPz6R8euL4msvj-12" value="Id_Usuario_Val" style="text;strokeColor=none;fillColor=none;align=left;verticalAlign=middle;spacingLeft=4;spacingRight=4;overflow=hidden;points=[[0,0.5],[1,0.5]];portConstraint=eastwest;rotatable=0;whiteSpace=wrap;html=1;" parent="N8pNkHzPz6R8euL4msvj-7" vertex="1">
          <mxGeometry y="120" width="140" height="30" as="geometry" />
        </mxCell>
        <mxCell id="N8pNkHzPz6R8euL4msvj-28" style="edgeStyle=orthogonalEdgeStyle;rounded=0;orthogonalLoop=1;jettySize=auto;html=1;entryX=0;entryY=0.5;entryDx=0;entryDy=0;" parent="1" source="N8pNkHzPz6R8euL4msvj-14" target="N8pNkHzPz6R8euL4msvj-26" edge="1">
          <mxGeometry relative="1" as="geometry" />
        </mxCell>
        <mxCell id="N8pNkHzPz6R8euL4msvj-33" style="edgeStyle=orthogonalEdgeStyle;rounded=0;orthogonalLoop=1;jettySize=auto;html=1;entryX=0.5;entryY=0;entryDx=0;entryDy=0;" parent="1" source="N8pNkHzPz6R8euL4msvj-14" target="N8pNkHzPz6R8euL4msvj-30" edge="1">
          <mxGeometry relative="1" as="geometry" />
        </mxCell>
        <mxCell id="N8pNkHzPz6R8euL4msvj-14" value="Productos" style="swimlane;fontStyle=0;childLayout=stackLayout;horizontal=1;startSize=30;horizontalStack=0;resizeParent=1;resizeParentMax=0;resizeLast=0;collapsible=1;marginBottom=0;whiteSpace=wrap;html=1;" parent="1" vertex="1">
          <mxGeometry x="380" width="140" height="180" as="geometry" />
        </mxCell>
        <mxCell id="N8pNkHzPz6R8euL4msvj-15" value="Id" style="text;strokeColor=none;fillColor=none;align=left;verticalAlign=middle;spacingLeft=4;spacingRight=4;overflow=hidden;points=[[0,0.5],[1,0.5]];portConstraint=eastwest;rotatable=0;whiteSpace=wrap;html=1;" parent="N8pNkHzPz6R8euL4msvj-14" vertex="1">
          <mxGeometry y="30" width="140" height="30" as="geometry" />
        </mxCell>
        <mxCell id="N8pNkHzPz6R8euL4msvj-16" value="Nombre" style="text;strokeColor=none;fillColor=none;align=left;verticalAlign=middle;spacingLeft=4;spacingRight=4;overflow=hidden;points=[[0,0.5],[1,0.5]];portConstraint=eastwest;rotatable=0;whiteSpace=wrap;html=1;" parent="N8pNkHzPz6R8euL4msvj-14" vertex="1">
          <mxGeometry y="60" width="140" height="30" as="geometry" />
        </mxCell>
        <mxCell id="N8pNkHzPz6R8euL4msvj-18" value="Descripci칩n" style="text;strokeColor=none;fillColor=none;align=left;verticalAlign=middle;spacingLeft=4;spacingRight=4;overflow=hidden;points=[[0,0.5],[1,0.5]];portConstraint=eastwest;rotatable=0;whiteSpace=wrap;html=1;" parent="N8pNkHzPz6R8euL4msvj-14" vertex="1">
          <mxGeometry y="90" width="140" height="30" as="geometry" />
        </mxCell>
        <mxCell id="N8pNkHzPz6R8euL4msvj-29" value="Id_Categoria" style="text;strokeColor=none;fillColor=none;align=left;verticalAlign=middle;spacingLeft=4;spacingRight=4;overflow=hidden;points=[[0,0.5],[1,0.5]];portConstraint=eastwest;rotatable=0;whiteSpace=wrap;html=1;" parent="N8pNkHzPz6R8euL4msvj-14" vertex="1">
          <mxGeometry y="120" width="140" height="30" as="geometry" />
        </mxCell>
        <mxCell id="N8pNkHzPz6R8euL4msvj-35" value="Id_Usuario" style="text;strokeColor=none;fillColor=none;align=left;verticalAlign=middle;spacingLeft=4;spacingRight=4;overflow=hidden;points=[[0,0.5],[1,0.5]];portConstraint=eastwest;rotatable=0;whiteSpace=wrap;html=1;" parent="N8pNkHzPz6R8euL4msvj-14" vertex="1">
          <mxGeometry y="150" width="140" height="30" as="geometry" />
        </mxCell>
        <mxCell id="N8pNkHzPz6R8euL4msvj-34" style="edgeStyle=orthogonalEdgeStyle;rounded=0;orthogonalLoop=1;jettySize=auto;html=1;entryX=1;entryY=0.5;entryDx=0;entryDy=0;" parent="1" source="N8pNkHzPz6R8euL4msvj-19" target="N8pNkHzPz6R8euL4msvj-31" edge="1">
          <mxGeometry relative="1" as="geometry" />
        </mxCell>
        <mxCell id="N8pNkHzPz6R8euL4msvj-19" value="Categorias" style="swimlane;fontStyle=0;childLayout=stackLayout;horizontal=1;startSize=30;horizontalStack=0;resizeParent=1;resizeParentMax=0;resizeLast=0;collapsible=1;marginBottom=0;whiteSpace=wrap;html=1;" parent="1" vertex="1">
          <mxGeometry x="560" y="230" width="140" height="90" as="geometry" />
        </mxCell>
        <mxCell id="N8pNkHzPz6R8euL4msvj-20" value="Id" style="text;strokeColor=none;fillColor=none;align=left;verticalAlign=middle;spacingLeft=4;spacingRight=4;overflow=hidden;points=[[0,0.5],[1,0.5]];portConstraint=eastwest;rotatable=0;whiteSpace=wrap;html=1;" parent="N8pNkHzPz6R8euL4msvj-19" vertex="1">
          <mxGeometry y="30" width="140" height="30" as="geometry" />
        </mxCell>
        <mxCell id="N8pNkHzPz6R8euL4msvj-21" value="Nombre" style="text;strokeColor=none;fillColor=none;align=left;verticalAlign=middle;spacingLeft=4;spacingRight=4;overflow=hidden;points=[[0,0.5],[1,0.5]];portConstraint=eastwest;rotatable=0;whiteSpace=wrap;html=1;" parent="N8pNkHzPz6R8euL4msvj-19" vertex="1">
          <mxGeometry y="60" width="140" height="30" as="geometry" />
        </mxCell>
        <mxCell id="N8pNkHzPz6R8euL4msvj-24" value="Imagenes" style="swimlane;fontStyle=0;childLayout=stackLayout;horizontal=1;startSize=30;horizontalStack=0;resizeParent=1;resizeParentMax=0;resizeLast=0;collapsible=1;marginBottom=0;whiteSpace=wrap;html=1;" parent="1" vertex="1">
          <mxGeometry x="560" y="15" width="140" height="120" as="geometry" />
        </mxCell>
        <mxCell id="N8pNkHzPz6R8euL4msvj-25" value="Id" style="text;strokeColor=none;fillColor=none;align=left;verticalAlign=middle;spacingLeft=4;spacingRight=4;overflow=hidden;points=[[0,0.5],[1,0.5]];portConstraint=eastwest;rotatable=0;whiteSpace=wrap;html=1;" parent="N8pNkHzPz6R8euL4msvj-24" vertex="1">
          <mxGeometry y="30" width="140" height="30" as="geometry" />
        </mxCell>
        <mxCell id="N8pNkHzPz6R8euL4msvj-26" value="Img" style="text;strokeColor=none;fillColor=none;align=left;verticalAlign=middle;spacingLeft=4;spacingRight=4;overflow=hidden;points=[[0,0.5],[1,0.5]];portConstraint=eastwest;rotatable=0;whiteSpace=wrap;html=1;" parent="N8pNkHzPz6R8euL4msvj-24" vertex="1">
          <mxGeometry y="60" width="140" height="30" as="geometry" />
        </mxCell>
        <mxCell id="N8pNkHzPz6R8euL4msvj-27" value="Id_Producto" style="text;strokeColor=none;fillColor=none;align=left;verticalAlign=middle;spacingLeft=4;spacingRight=4;overflow=hidden;points=[[0,0.5],[1,0.5]];portConstraint=eastwest;rotatable=0;whiteSpace=wrap;html=1;" parent="N8pNkHzPz6R8euL4msvj-24" vertex="1">
          <mxGeometry y="90" width="140" height="30" as="geometry" />
        </mxCell>
        <mxCell id="N8pNkHzPz6R8euL4msvj-30" value="TruequePorCategorias" style="swimlane;fontStyle=0;childLayout=stackLayout;horizontal=1;startSize=30;horizontalStack=0;resizeParent=1;resizeParentMax=0;resizeLast=0;collapsible=1;marginBottom=0;whiteSpace=wrap;html=1;" parent="1" vertex="1">
          <mxGeometry x="380" y="230" width="140" height="90" as="geometry" />
        </mxCell>
        <mxCell id="N8pNkHzPz6R8euL4msvj-31" value="Id_Producto" style="text;strokeColor=none;fillColor=none;align=left;verticalAlign=middle;spacingLeft=4;spacingRight=4;overflow=hidden;points=[[0,0.5],[1,0.5]];portConstraint=eastwest;rotatable=0;whiteSpace=wrap;html=1;" parent="N8pNkHzPz6R8euL4msvj-30" vertex="1">
          <mxGeometry y="30" width="140" height="30" as="geometry" />
        </mxCell>
        <mxCell id="N8pNkHzPz6R8euL4msvj-32" value="Id_Categoria" style="text;strokeColor=none;fillColor=none;align=left;verticalAlign=middle;spacingLeft=4;spacingRight=4;overflow=hidden;points=[[0,0.5],[1,0.5]];portConstraint=eastwest;rotatable=0;whiteSpace=wrap;html=1;" parent="N8pNkHzPz6R8euL4msvj-30" vertex="1">
          <mxGeometry y="60" width="140" height="30" as="geometry" />
        </mxCell>
        <mxCell id="N8pNkHzPz6R8euL4msvj-36" style="edgeStyle=orthogonalEdgeStyle;rounded=0;orthogonalLoop=1;jettySize=auto;html=1;entryX=0;entryY=0.5;entryDx=0;entryDy=0;" parent="1" source="N8pNkHzPz6R8euL4msvj-9" target="N8pNkHzPz6R8euL4msvj-3" edge="1">
          <mxGeometry relative="1" as="geometry" />
        </mxCell>
        <mxCell id="N8pNkHzPz6R8euL4msvj-37" style="edgeStyle=orthogonalEdgeStyle;rounded=0;orthogonalLoop=1;jettySize=auto;html=1;" parent="1" source="N8pNkHzPz6R8euL4msvj-3" target="N8pNkHzPz6R8euL4msvj-16" edge="1">
          <mxGeometry relative="1" as="geometry" />
        </mxCell>
        <mxCell id="N8pNkHzPz6R8euL4msvj-38" value="Trueque" style="swimlane;fontStyle=0;childLayout=stackLayout;horizontal=1;startSize=30;horizontalStack=0;resizeParent=1;resizeParentMax=0;resizeLast=0;collapsible=1;marginBottom=0;whiteSpace=wrap;html=1;" parent="1" vertex="1">
          <mxGeometry x="20" y="180" width="140" height="180" as="geometry" />
        </mxCell>
        <mxCell id="N8pNkHzPz6R8euL4msvj-39" value="Id" style="text;strokeColor=none;fillColor=none;align=left;verticalAlign=middle;spacingLeft=4;spacingRight=4;overflow=hidden;points=[[0,0.5],[1,0.5]];portConstraint=eastwest;rotatable=0;whiteSpace=wrap;html=1;" parent="N8pNkHzPz6R8euL4msvj-38" vertex="1">
          <mxGeometry y="30" width="140" height="30" as="geometry" />
        </mxCell>
        <mxCell id="N8pNkHzPz6R8euL4msvj-40" value="Id_Usuario" style="text;strokeColor=none;fillColor=none;align=left;verticalAlign=middle;spacingLeft=4;spacingRight=4;overflow=hidden;points=[[0,0.5],[1,0.5]];portConstraint=eastwest;rotatable=0;whiteSpace=wrap;html=1;" parent="N8pNkHzPz6R8euL4msvj-38" vertex="1">
          <mxGeometry y="60" width="140" height="30" as="geometry" />
        </mxCell>
        <mxCell id="N8pNkHzPz6R8euL4msvj-41" value="Id_Producto" style="text;strokeColor=none;fillColor=none;align=left;verticalAlign=middle;spacingLeft=4;spacingRight=4;overflow=hidden;points=[[0,0.5],[1,0.5]];portConstraint=eastwest;rotatable=0;whiteSpace=wrap;html=1;" parent="N8pNkHzPz6R8euL4msvj-38" vertex="1">
          <mxGeometry y="90" width="140" height="30" as="geometry" />
        </mxCell>
        <mxCell id="N8pNkHzPz6R8euL4msvj-42" value="Valoracion" style="text;strokeColor=none;fillColor=none;align=left;verticalAlign=middle;spacingLeft=4;spacingRight=4;overflow=hidden;points=[[0,0.5],[1,0.5]];portConstraint=eastwest;rotatable=0;whiteSpace=wrap;html=1;" parent="N8pNkHzPz6R8euL4msvj-38" vertex="1">
          <mxGeometry y="120" width="140" height="30" as="geometry" />
        </mxCell>
        <mxCell id="N8pNkHzPz6R8euL4msvj-43" value="Estado" style="text;strokeColor=none;fillColor=none;align=left;verticalAlign=middle;spacingLeft=4;spacingRight=4;overflow=hidden;points=[[0,0.5],[1,0.5]];portConstraint=eastwest;rotatable=0;whiteSpace=wrap;html=1;" parent="N8pNkHzPz6R8euL4msvj-38" vertex="1">
          <mxGeometry y="150" width="140" height="30" as="geometry" />
        </mxCell>
        <mxCell id="N8pNkHzPz6R8euL4msvj-44" value="Colores" style="swimlane;fontStyle=0;childLayout=stackLayout;horizontal=1;startSize=30;horizontalStack=0;resizeParent=1;resizeParentMax=0;resizeLast=0;collapsible=1;marginBottom=0;whiteSpace=wrap;html=1;" parent="1" vertex="1">
          <mxGeometry x="200" y="220" width="140" height="120" as="geometry" />
        </mxCell>
        <mxCell id="N8pNkHzPz6R8euL4msvj-45" value="#08bdbd" style="text;strokeColor=none;fillColor=none;align=left;verticalAlign=middle;spacingLeft=4;spacingRight=4;overflow=hidden;points=[[0,0.5],[1,0.5]];portConstraint=eastwest;rotatable=0;whiteSpace=wrap;html=1;" parent="N8pNkHzPz6R8euL4msvj-44" vertex="1">
          <mxGeometry y="30" width="140" height="30" as="geometry" />
        </mxCell>
        <mxCell id="N8pNkHzPz6R8euL4msvj-46" value="#008f90" style="text;strokeColor=none;fillColor=none;align=left;verticalAlign=middle;spacingLeft=4;spacingRight=4;overflow=hidden;points=[[0,0.5],[1,0.5]];portConstraint=eastwest;rotatable=0;whiteSpace=wrap;html=1;" parent="N8pNkHzPz6R8euL4msvj-44" vertex="1">
          <mxGeometry y="60" width="140" height="30" as="geometry" />
        </mxCell>
        <mxCell id="N8pNkHzPz6R8euL4msvj-47" value="#e1ebed" style="text;strokeColor=none;fillColor=none;align=left;verticalAlign=middle;spacingLeft=4;spacingRight=4;overflow=hidden;points=[[0,0.5],[1,0.5]];portConstraint=eastwest;rotatable=0;whiteSpace=wrap;html=1;" parent="N8pNkHzPz6R8euL4msvj-44" vertex="1">
          <mxGeometry y="90" width="140" height="30" as="geometry" />
        </mxCell>
        <mxCell id="zzRHjBUQeKa_N6D4FI0C-9" style="edgeStyle=none;curved=1;rounded=0;orthogonalLoop=1;jettySize=auto;html=1;entryX=0;entryY=0.5;entryDx=0;entryDy=0;fontSize=12;startSize=8;endSize=8;" edge="1" parent="1" source="zzRHjBUQeKa_N6D4FI0C-1" target="zzRHjBUQeKa_N6D4FI0C-8">
          <mxGeometry relative="1" as="geometry" />
        </mxCell>
        <mxCell id="zzRHjBUQeKa_N6D4FI0C-1" value="Explorador" style="swimlane;whiteSpace=wrap;html=1;" vertex="1" parent="1">
          <mxGeometry x="22.5" y="410" width="135" height="200" as="geometry" />
        </mxCell>
        <mxCell id="zzRHjBUQeKa_N6D4FI0C-16" value="Cuadriculas" style="text;html=1;align=center;verticalAlign=middle;resizable=0;points=[];autosize=1;strokeColor=none;fillColor=none;fontSize=16;" vertex="1" parent="zzRHjBUQeKa_N6D4FI0C-1">
          <mxGeometry x="12.5" y="40" width="110" height="30" as="geometry" />
        </mxCell>
        <mxCell id="zzRHjBUQeKa_N6D4FI0C-7" style="edgeStyle=none;curved=1;rounded=0;orthogonalLoop=1;jettySize=auto;html=1;entryX=0.5;entryY=1;entryDx=0;entryDy=0;fontSize=12;startSize=8;endSize=8;" edge="1" parent="1" source="zzRHjBUQeKa_N6D4FI0C-2" target="zzRHjBUQeKa_N6D4FI0C-1">
          <mxGeometry relative="1" as="geometry" />
        </mxCell>
        <mxCell id="zzRHjBUQeKa_N6D4FI0C-2" value="LUPA" style="rounded=1;whiteSpace=wrap;html=1;" vertex="1" parent="1">
          <mxGeometry x="60" y="680" width="60" height="60" as="geometry" />
        </mxCell>
        <mxCell id="zzRHjBUQeKa_N6D4FI0C-3" value="" style="rounded=1;whiteSpace=wrap;html=1;" vertex="1" parent="1">
          <mxGeometry x="730" y="680" width="60" height="60" as="geometry" />
        </mxCell>
        <mxCell id="zzRHjBUQeKa_N6D4FI0C-12" style="edgeStyle=none;curved=1;rounded=0;orthogonalLoop=1;jettySize=auto;html=1;fontSize=12;startSize=8;endSize=8;entryX=0.5;entryY=0;entryDx=0;entryDy=0;exitX=0.5;exitY=1;exitDx=0;exitDy=0;" edge="1" parent="1" source="zzRHjBUQeKa_N6D4FI0C-4" target="zzRHjBUQeKa_N6D4FI0C-17">
          <mxGeometry relative="1" as="geometry">
            <mxPoint x="177.5" y="800" as="targetPoint" />
          </mxGeometry>
        </mxCell>
        <mxCell id="zzRHjBUQeKa_N6D4FI0C-4" value="LIKE" style="rounded=1;whiteSpace=wrap;html=1;" vertex="1" parent="1">
          <mxGeometry x="147.5" y="680" width="60" height="60" as="geometry" />
        </mxCell>
        <mxCell id="zzRHjBUQeKa_N6D4FI0C-39" style="edgeStyle=none;curved=1;rounded=0;orthogonalLoop=1;jettySize=auto;html=1;entryX=0.5;entryY=0;entryDx=0;entryDy=0;fontSize=12;startSize=8;endSize=8;" edge="1" parent="1" source="zzRHjBUQeKa_N6D4FI0C-5" target="zzRHjBUQeKa_N6D4FI0C-22">
          <mxGeometry relative="1" as="geometry" />
        </mxCell>
        <mxCell id="zzRHjBUQeKa_N6D4FI0C-5" value="NOTIF." style="rounded=1;whiteSpace=wrap;html=1;" vertex="1" parent="1">
          <mxGeometry x="440" y="680" width="60" height="60" as="geometry" />
        </mxCell>
        <mxCell id="zzRHjBUQeKa_N6D4FI0C-6" value="PERFIL" style="rounded=1;whiteSpace=wrap;html=1;" vertex="1" parent="1">
          <mxGeometry x="640" y="680" width="60" height="60" as="geometry" />
        </mxCell>
        <mxCell id="zzRHjBUQeKa_N6D4FI0C-26" style="edgeStyle=none;curved=1;rounded=0;orthogonalLoop=1;jettySize=auto;html=1;entryX=0.5;entryY=0;entryDx=0;entryDy=0;fontSize=12;startSize=8;endSize=8;" edge="1" parent="1" target="zzRHjBUQeKa_N6D4FI0C-24">
          <mxGeometry relative="1" as="geometry">
            <mxPoint x="300" y="610" as="sourcePoint" />
          </mxGeometry>
        </mxCell>
        <mxCell id="zzRHjBUQeKa_N6D4FI0C-8" value="Detalle" style="swimlane;whiteSpace=wrap;html=1;" vertex="1" parent="1">
          <mxGeometry x="220" y="410" width="130" height="200" as="geometry" />
        </mxCell>
        <mxCell id="zzRHjBUQeKa_N6D4FI0C-15" value="Modal" style="text;html=1;align=center;verticalAlign=middle;resizable=0;points=[];autosize=1;strokeColor=none;fillColor=none;fontSize=16;" vertex="1" parent="zzRHjBUQeKa_N6D4FI0C-8">
          <mxGeometry x="15" y="40" width="70" height="30" as="geometry" />
        </mxCell>
        <mxCell id="zzRHjBUQeKa_N6D4FI0C-13" style="edgeStyle=none;curved=1;rounded=0;orthogonalLoop=1;jettySize=auto;html=1;entryX=0.5;entryY=0;entryDx=0;entryDy=0;fontSize=12;startSize=8;endSize=8;exitX=0.5;exitY=1;exitDx=0;exitDy=0;" edge="1" parent="1" source="zzRHjBUQeKa_N6D4FI0C-17" target="zzRHjBUQeKa_N6D4FI0C-11">
          <mxGeometry relative="1" as="geometry">
            <mxPoint x="132.5" y="1060" as="sourcePoint" />
          </mxGeometry>
        </mxCell>
        <mxCell id="zzRHjBUQeKa_N6D4FI0C-37" style="edgeStyle=none;curved=1;rounded=0;orthogonalLoop=1;jettySize=auto;html=1;entryX=0.5;entryY=1;entryDx=0;entryDy=0;fontSize=12;startSize=8;endSize=8;exitX=1;exitY=0.5;exitDx=0;exitDy=0;" edge="1" parent="1" source="zzRHjBUQeKa_N6D4FI0C-11" target="zzRHjBUQeKa_N6D4FI0C-24">
          <mxGeometry relative="1" as="geometry" />
        </mxCell>
        <mxCell id="zzRHjBUQeKa_N6D4FI0C-11" value="Detalle" style="swimlane;whiteSpace=wrap;html=1;" vertex="1" parent="1">
          <mxGeometry x="52.5" y="1070" width="130" height="200" as="geometry" />
        </mxCell>
        <mxCell id="zzRHjBUQeKa_N6D4FI0C-14" value="Modal" style="text;html=1;align=center;verticalAlign=middle;resizable=0;points=[];autosize=1;strokeColor=none;fillColor=none;fontSize=16;" vertex="1" parent="zzRHjBUQeKa_N6D4FI0C-11">
          <mxGeometry x="4" y="69" width="70" height="30" as="geometry" />
        </mxCell>
        <mxCell id="zzRHjBUQeKa_N6D4FI0C-17" value="Explorador" style="swimlane;whiteSpace=wrap;html=1;" vertex="1" parent="1">
          <mxGeometry x="50" y="810" width="135" height="200" as="geometry" />
        </mxCell>
        <mxCell id="zzRHjBUQeKa_N6D4FI0C-18" value="Cuadriculas" style="text;html=1;align=center;verticalAlign=middle;resizable=0;points=[];autosize=1;strokeColor=none;fillColor=none;fontSize=16;" vertex="1" parent="zzRHjBUQeKa_N6D4FI0C-17">
          <mxGeometry x="12.5" y="40" width="110" height="30" as="geometry" />
        </mxCell>
        <mxCell id="zzRHjBUQeKa_N6D4FI0C-22" value="&lt;ul&gt;&lt;li&gt;Value 1&lt;/li&gt;&lt;li&gt;Value 2&lt;/li&gt;&lt;li&gt;Value 3&lt;/li&gt;&lt;/ul&gt;" style="text;strokeColor=none;fillColor=none;html=1;whiteSpace=wrap;verticalAlign=middle;overflow=hidden;" vertex="1" parent="1">
          <mxGeometry x="530" y="760" width="100" height="80" as="geometry" />
        </mxCell>
        <mxCell id="zzRHjBUQeKa_N6D4FI0C-38" style="edgeStyle=none;curved=1;rounded=0;orthogonalLoop=1;jettySize=auto;html=1;entryX=0;entryY=0.5;entryDx=0;entryDy=0;fontSize=12;startSize=8;endSize=8;" edge="1" parent="1" source="zzRHjBUQeKa_N6D4FI0C-24" target="zzRHjBUQeKa_N6D4FI0C-5">
          <mxGeometry relative="1" as="geometry" />
        </mxCell>
        <mxCell id="zzRHjBUQeKa_N6D4FI0C-24" value="Formulario" style="swimlane;whiteSpace=wrap;html=1;" vertex="1" parent="1">
          <mxGeometry x="260" y="700" width="130" height="200" as="geometry" />
        </mxCell>
        <mxCell id="zzRHjBUQeKa_N6D4FI0C-25" value="Modal" style="text;html=1;align=center;verticalAlign=middle;resizable=0;points=[];autosize=1;strokeColor=none;fillColor=none;fontSize=16;" vertex="1" parent="zzRHjBUQeKa_N6D4FI0C-24">
          <mxGeometry x="15" y="40" width="70" height="30" as="geometry" />
        </mxCell>
        <mxCell id="zzRHjBUQeKa_N6D4FI0C-27" value="Ofrecer" style="text;html=1;align=center;verticalAlign=middle;resizable=0;points=[];autosize=1;strokeColor=none;fillColor=none;fontSize=16;" vertex="1" parent="zzRHjBUQeKa_N6D4FI0C-24">
          <mxGeometry x="10" y="80" width="80" height="30" as="geometry" />
        </mxCell>
        <mxCell id="zzRHjBUQeKa_N6D4FI0C-32" style="edgeStyle=none;curved=1;rounded=0;orthogonalLoop=1;jettySize=auto;html=1;entryX=0;entryY=0.5;entryDx=0;entryDy=0;fontSize=12;startSize=8;endSize=8;" edge="1" parent="1" source="zzRHjBUQeKa_N6D4FI0C-29" target="zzRHjBUQeKa_N6D4FI0C-30">
          <mxGeometry relative="1" as="geometry" />
        </mxCell>
        <mxCell id="zzRHjBUQeKa_N6D4FI0C-35" style="edgeStyle=none;curved=1;rounded=0;orthogonalLoop=1;jettySize=auto;html=1;fontSize=12;startSize=8;endSize=8;" edge="1" parent="1" source="zzRHjBUQeKa_N6D4FI0C-29" target="zzRHjBUQeKa_N6D4FI0C-33">
          <mxGeometry relative="1" as="geometry" />
        </mxCell>
        <mxCell id="zzRHjBUQeKa_N6D4FI0C-29" value="Rechazar&lt;br&gt;Aceptar&lt;div&gt;Ver&lt;/div&gt;" style="label;whiteSpace=wrap;html=1;image=img/clipart/Gear_128x128.png" vertex="1" parent="1">
          <mxGeometry x="522.5" y="860" width="140" height="60" as="geometry" />
        </mxCell>
        <mxCell id="zzRHjBUQeKa_N6D4FI0C-30" value="Aceptar" style="swimlane;whiteSpace=wrap;html=1;" vertex="1" parent="1">
          <mxGeometry x="719" y="790" width="135" height="200" as="geometry" />
        </mxCell>
        <mxCell id="zzRHjBUQeKa_N6D4FI0C-31" value="CHAT" style="text;html=1;align=center;verticalAlign=middle;resizable=0;points=[];autosize=1;strokeColor=none;fillColor=none;fontSize=16;" vertex="1" parent="zzRHjBUQeKa_N6D4FI0C-30">
          <mxGeometry x="32.5" y="40" width="70" height="30" as="geometry" />
        </mxCell>
        <mxCell id="zzRHjBUQeKa_N6D4FI0C-33" value="Ver" style="swimlane;whiteSpace=wrap;html=1;startSize=23;" vertex="1" parent="1">
          <mxGeometry x="525" y="980" width="135" height="200" as="geometry" />
        </mxCell>
        <mxCell id="zzRHjBUQeKa_N6D4FI0C-34" value="Foto Opcional" style="text;html=1;align=center;verticalAlign=middle;resizable=0;points=[];autosize=1;strokeColor=none;fillColor=none;fontSize=16;" vertex="1" parent="zzRHjBUQeKa_N6D4FI0C-33">
          <mxGeometry x="7.5" y="40" width="120" height="30" as="geometry" />
        </mxCell>
        <mxCell id="zzRHjBUQeKa_N6D4FI0C-36" value="Foto Opcional" style="text;html=1;align=center;verticalAlign=middle;resizable=0;points=[];autosize=1;strokeColor=none;fillColor=none;fontSize=16;" vertex="1" parent="zzRHjBUQeKa_N6D4FI0C-33">
          <mxGeometry x="7.5" y="70" width="120" height="30" as="geometry" />
        </mxCell>
      </root>
    </mxGraphModel>
  </diagram>
</mxfile>
